<svg id="Camada_1" data-name="Camada 1" xmlns="http://www.w3.org/2000/svg" viewBox="0 0 219 71">
  <defs>
    <style>
      .cls-1 {
        fill: #fff;
      }

      .cls-1, .cls-2 {
        stroke: #262626;
        stroke-width: 2px;
      }

      .cls-2, .cls-3 {
        fill: #262626;
      }
    </style>
  </defs>
  <title>codigo preto hover</title>
  <rect class="cls-1" x="1" y="1" width="217" height="69"/>
  <rect class="cls-2" x="1" y="1" width="69" height="69"/>
  <g>
    <path class="cls-3" d="M403.558,267.213l.182,2.7h-.182a3.4,3.4,0,0,0-1.037-1.746,2.526,2.526,0,0,0-1.617-.533,2.506,2.506,0,0,0-2.435,1.682,5.7,5.7,0,0,0-.366,2.186,4.641,4.641,0,0,0,.346,1.869,2.59,2.59,0,0,0,1.04,1.213,2.991,2.991,0,0,0,1.585.422,2.749,2.749,0,0,0,1.365-.331,4.5,4.5,0,0,0,1.3-1.315l.182.117a4.172,4.172,0,0,1-1.395,1.553,3.53,3.53,0,0,1-1.893.492,3.582,3.582,0,0,1-3.059-1.465,4.188,4.188,0,0,1-.809-2.566,4.558,4.558,0,0,1,.533-2.186,3.858,3.858,0,0,1,1.468-1.544,3.966,3.966,0,0,1,2.042-.548,3.742,3.742,0,0,1,1.7.422.922.922,0,0,0,.352.129.387.387,0,0,0,.275-.111.913.913,0,0,0,.217-.439Z" transform="translate(-321 -244)"/>
    <path class="cls-3" d="M406.558,267.008v7.119a1.947,1.947,0,0,0,.073.668.519.519,0,0,0,.226.249,1.3,1.3,0,0,0,.568.085v.211h-2.631v-.211a1.137,1.137,0,0,0,.5-.076.508.508,0,0,0,.211-.252,1.962,1.962,0,0,0,.076-.674v-4.875a8.449,8.449,0,0,0-.041-1.116.489.489,0,0,0-.132-.284.348.348,0,0,0-.231-.076,1.094,1.094,0,0,0-.387.094l-.1-.205,1.6-.656Z" transform="translate(-321 -244)"/>
    <path class="cls-3" d="M409.9,269.814v4.313a1.975,1.975,0,0,0,.073.671.514.514,0,0,0,.217.249,1.16,1.16,0,0,0,.524.082v.211H408.1v-.211a1.214,1.214,0,0,0,.527-.076.522.522,0,0,0,.214-.252,1.894,1.894,0,0,0,.079-.674v-2.068a7.315,7.315,0,0,0-.053-1.131.46.46,0,0,0-.129-.261.364.364,0,0,0-.24-.073,1.173,1.173,0,0,0-.4.088l-.082-.211,1.617-.656Zm-.486-2.807a.59.59,0,0,1,.592.592.58.58,0,0,1-.173.422.566.566,0,0,1-.419.176.595.595,0,1,1,0-1.189Z" transform="translate(-321 -244)"/>
    <path class="cls-3" d="M416.132,269.814v6.9a1.9,1.9,0,0,0,.07.662.507.507,0,0,0,.22.229,1.376,1.376,0,0,0,.583.082v.217H414.3v-.217h.111a1.054,1.054,0,0,0,.5-.094.449.449,0,0,0,.188-.231,1.947,1.947,0,0,0,.07-.647v-2.309a3.927,3.927,0,0,1-.932.864,1.623,1.623,0,0,1-.826.231,1.807,1.807,0,0,1-1.392-.709,2.8,2.8,0,0,1-.612-1.9,3.111,3.111,0,0,1,.809-2.224,2.584,2.584,0,0,1,1.951-.858,1.935,1.935,0,0,1,.615.094,1.522,1.522,0,0,1,.5.281,5.108,5.108,0,0,0,.65-.375Zm-.967,4.225v-2.52a1.708,1.708,0,0,0-.114-.691.978.978,0,0,0-.407-.428,1.262,1.262,0,0,0-.662-.176,1.425,1.425,0,0,0-1.125.557,2.574,2.574,0,0,0-.469,1.688,2.482,2.482,0,0,0,.478,1.646,1.461,1.461,0,0,0,1.151.563,1.248,1.248,0,0,0,.615-.149A1.82,1.82,0,0,0,415.166,274.039Z" transform="translate(-321 -244)"/>
    <path class="cls-3" d="M422.085,269.973v3.252a8.163,8.163,0,0,0,.044,1.14.511.511,0,0,0,.141.29.338.338,0,0,0,.226.082,1.043,1.043,0,0,0,.41-.1l.082.205-1.605.662h-.264v-1.137a4.89,4.89,0,0,1-1.055.943,1.611,1.611,0,0,1-.768.193,1.227,1.227,0,0,1-.782-.261,1.348,1.348,0,0,1-.46-.671,4.055,4.055,0,0,1-.129-1.16v-2.4a1.181,1.181,0,0,0-.082-.527.546.546,0,0,0-.243-.226,1.428,1.428,0,0,0-.583-.073v-.217H418.9v3.592a1.342,1.342,0,0,0,.261.984.909.909,0,0,0,.63.234,1.313,1.313,0,0,0,.571-.158,3.092,3.092,0,0,0,.759-.6V270.98a.861.861,0,0,0-.167-.618,1.082,1.082,0,0,0-.694-.173v-.217Z" transform="translate(-321 -244)"/>
    <path class="cls-3" d="M424.283,271.994a2.757,2.757,0,0,0,.58,1.875,1.769,1.769,0,0,0,1.377.68,1.493,1.493,0,0,0,.917-.29,2.141,2.141,0,0,0,.653-.993l.182.117a2.794,2.794,0,0,1-.715,1.462,1.909,1.909,0,0,1-1.482.659,2.165,2.165,0,0,1-1.655-.753,2.884,2.884,0,0,1-.688-2.024,3.061,3.061,0,0,1,.706-2.147,2.3,2.3,0,0,1,1.772-.771,1.981,1.981,0,0,1,1.482.595,2.181,2.181,0,0,1,.58,1.591Zm0-.34h2.484a2.3,2.3,0,0,0-.123-.727,1.164,1.164,0,0,0-.437-.516,1.1,1.1,0,0,0-.606-.187,1.209,1.209,0,0,0-.87.378A1.64,1.64,0,0,0,424.283,271.654Z" transform="translate(-321 -244)"/>
    <path class="cls-3" d="M432.664,270.506l1.652-.668h.223v1.254a3.042,3.042,0,0,1,.835-.993,1.546,1.546,0,0,1,.882-.284,1.7,1.7,0,0,1,1.348.633,2.991,2.991,0,0,1,.662,2.016,3.355,3.355,0,0,1-.8,2.3,2.109,2.109,0,0,1-1.652.744,2.067,2.067,0,0,1-.75-.123,1.757,1.757,0,0,1-.527-.352v1.635a2.177,2.177,0,0,0,.067.7.5.5,0,0,0,.234.237,1.441,1.441,0,0,0,.606.088v.217h-2.812v-.217h.146a1.064,1.064,0,0,0,.551-.123.422.422,0,0,0,.173-.208,2.5,2.5,0,0,0,.062-.729v-5.074a2.761,2.761,0,0,0-.047-.662.4.4,0,0,0-.149-.211.485.485,0,0,0-.278-.07,1.06,1.06,0,0,0-.357.082Zm1.875.932v2a4.3,4.3,0,0,0,.053.855,1.1,1.1,0,0,0,.4.6,1.241,1.241,0,0,0,.806.258,1.155,1.155,0,0,0,.949-.457,2.643,2.643,0,0,0,.475-1.682,2.929,2.929,0,0,0-.539-1.893,1.121,1.121,0,0,0-.891-.457,1.213,1.213,0,0,0-.557.141A3.267,3.267,0,0,0,434.539,271.438Z" transform="translate(-321 -244)"/>
    <path class="cls-3" d="M442.092,274.566a8.846,8.846,0,0,1-1.037.738,1.585,1.585,0,0,1-.674.146,1.207,1.207,0,0,1-.917-.381,1.4,1.4,0,0,1-.36-1,1.276,1.276,0,0,1,.176-.68,2.327,2.327,0,0,1,.835-.75,12.991,12.991,0,0,1,1.978-.855v-.211a1.75,1.75,0,0,0-.255-1.1.92.92,0,0,0-.741-.3.832.832,0,0,0-.586.2.6.6,0,0,0-.223.457l.012.34a.584.584,0,0,1-.138.416.472.472,0,0,1-.36.146.456.456,0,0,1-.354-.152.6.6,0,0,1-.138-.416,1.2,1.2,0,0,1,.516-.926,2.226,2.226,0,0,1,1.447-.422,2.51,2.51,0,0,1,1.172.24,1.1,1.1,0,0,1,.51.568,3.2,3.2,0,0,1,.105,1.031v1.822a8.346,8.346,0,0,0,.029.94.4.4,0,0,0,.1.231.23.23,0,0,0,.155.059.32.32,0,0,0,.164-.041,3.66,3.66,0,0,0,.475-.428v.328q-.656.879-1.254.879a.57.57,0,0,1-.457-.2A1.076,1.076,0,0,1,442.092,274.566Zm0-.381v-2.045a11.57,11.57,0,0,0-1.143.5,1.973,1.973,0,0,0-.662.539,1.042,1.042,0,0,0-.2.615,1,1,0,0,0,.252.7.764.764,0,0,0,.58.278A2.126,2.126,0,0,0,442.092,274.186Z" transform="translate(-321 -244)"/>
    <path class="cls-3" d="M445.947,269.814v1.207q.674-1.207,1.383-1.207a.752.752,0,0,1,.533.2.6.6,0,0,1,.211.454.537.537,0,0,1-.152.387.487.487,0,0,1-.363.158.774.774,0,0,1-.46-.2.759.759,0,0,0-.378-.2.349.349,0,0,0-.229.117,2.819,2.819,0,0,0-.545.791v2.572a1.592,1.592,0,0,0,.111.674.607.607,0,0,0,.27.264,1.184,1.184,0,0,0,.557.105v.211h-2.748v-.211a1.141,1.141,0,0,0,.609-.129.5.5,0,0,0,.205-.3,3.014,3.014,0,0,0,.029-.568v-2.08a8.644,8.644,0,0,0-.038-1.116.437.437,0,0,0-.141-.261.4.4,0,0,0-.255-.082,1.159,1.159,0,0,0-.41.088l-.059-.211,1.623-.656Z" transform="translate(-321 -244)"/>
    <path class="cls-3" d="M451.414,274.566a8.846,8.846,0,0,1-1.037.738,1.585,1.585,0,0,1-.674.146,1.207,1.207,0,0,1-.917-.381,1.4,1.4,0,0,1-.36-1,1.276,1.276,0,0,1,.176-.68,2.327,2.327,0,0,1,.835-.75,12.991,12.991,0,0,1,1.978-.855v-.211a1.75,1.75,0,0,0-.255-1.1.92.92,0,0,0-.741-.3.832.832,0,0,0-.586.2.6.6,0,0,0-.223.457l.012.34a.584.584,0,0,1-.138.416.472.472,0,0,1-.36.146.456.456,0,0,1-.354-.152.6.6,0,0,1-.138-.416,1.2,1.2,0,0,1,.516-.926,2.226,2.226,0,0,1,1.447-.422,2.51,2.51,0,0,1,1.172.24,1.1,1.1,0,0,1,.51.568,3.2,3.2,0,0,1,.105,1.031v1.822a8.346,8.346,0,0,0,.029.94.4.4,0,0,0,.1.231.23.23,0,0,0,.155.059.32.32,0,0,0,.164-.041,3.66,3.66,0,0,0,.475-.428v.328q-.656.879-1.254.879a.57.57,0,0,1-.457-.2A1.076,1.076,0,0,1,451.414,274.566Zm0-.381v-2.045a11.57,11.57,0,0,0-1.143.5,1.973,1.973,0,0,0-.662.539,1.042,1.042,0,0,0-.2.615,1,1,0,0,0,.252.7.764.764,0,0,0,.58.278A2.126,2.126,0,0,0,451.414,274.186Z" transform="translate(-321 -244)"/>
    <path class="cls-3" d="M462.6,273.3a2.907,2.907,0,0,1-.85,1.632,2.043,2.043,0,0,1-1.4.571,2.069,2.069,0,0,1-1.594-.768,3.016,3.016,0,0,1-.68-2.074,2.86,2.86,0,0,1,.753-2.057,2.407,2.407,0,0,1,1.808-.791,1.981,1.981,0,0,1,1.3.419,1.159,1.159,0,0,1,.51.87.477.477,0,0,1-.144.36.556.556,0,0,1-.4.138.624.624,0,0,1-.521-.223.926.926,0,0,1-.132-.469.768.768,0,0,0-.237-.527.846.846,0,0,0-.568-.176,1.162,1.162,0,0,0-.943.434,2.306,2.306,0,0,0-.475,1.518,3.073,3.073,0,0,0,.472,1.7,1.448,1.448,0,0,0,1.274.735,1.541,1.541,0,0,0,1.031-.393,2.649,2.649,0,0,0,.627-.979Z" transform="translate(-321 -244)"/>
    <path class="cls-3" d="M466,269.814a2.378,2.378,0,0,1,1.957.926,2.843,2.843,0,0,1,.627,1.816,3.42,3.42,0,0,1-.346,1.459,2.455,2.455,0,0,1-2.3,1.488,2.274,2.274,0,0,1-1.928-.967,3,3,0,0,1-.6-1.828,3.244,3.244,0,0,1,.366-1.468,2.5,2.5,0,0,1,.964-1.078A2.473,2.473,0,0,1,466,269.814Zm-.182.381a1.222,1.222,0,0,0-.624.185,1.294,1.294,0,0,0-.507.647,3.116,3.116,0,0,0-.193,1.189,4.144,4.144,0,0,0,.466,2.021,1.387,1.387,0,0,0,1.228.85,1.144,1.144,0,0,0,.938-.469,2.664,2.664,0,0,0,.369-1.611,3.673,3.673,0,0,0-.615-2.25A1.268,1.268,0,0,0,465.813,270.2Z" transform="translate(-321 -244)"/>
    <path class="cls-3" d="M468.983,270.506l1.652-.668h.223v1.254a3.042,3.042,0,0,1,.835-.993,1.546,1.546,0,0,1,.882-.284,1.7,1.7,0,0,1,1.348.633,2.991,2.991,0,0,1,.662,2.016,3.355,3.355,0,0,1-.8,2.3,2.109,2.109,0,0,1-1.652.744,2.067,2.067,0,0,1-.75-.123,1.757,1.757,0,0,1-.527-.352v1.635a2.177,2.177,0,0,0,.067.7.5.5,0,0,0,.234.237,1.441,1.441,0,0,0,.606.088v.217h-2.812v-.217h.146a1.064,1.064,0,0,0,.551-.123.422.422,0,0,0,.173-.208,2.5,2.5,0,0,0,.062-.729v-5.074a2.761,2.761,0,0,0-.047-.662.4.4,0,0,0-.149-.211.485.485,0,0,0-.278-.07,1.06,1.06,0,0,0-.357.082Zm1.875.932v2a4.3,4.3,0,0,0,.053.855,1.1,1.1,0,0,0,.4.6,1.241,1.241,0,0,0,.806.258,1.155,1.155,0,0,0,.949-.457,2.643,2.643,0,0,0,.475-1.682,2.929,2.929,0,0,0-.539-1.893,1.121,1.121,0,0,0-.891-.457,1.213,1.213,0,0,0-.557.141A3.267,3.267,0,0,0,470.858,271.438Z" transform="translate(-321 -244)"/>
    <path class="cls-3" d="M477.222,269.814v4.313a1.975,1.975,0,0,0,.073.671.514.514,0,0,0,.217.249,1.16,1.16,0,0,0,.524.082v.211h-2.607v-.211a1.214,1.214,0,0,0,.527-.076.522.522,0,0,0,.214-.252,1.894,1.894,0,0,0,.079-.674v-2.068a7.315,7.315,0,0,0-.053-1.131.46.46,0,0,0-.129-.261.364.364,0,0,0-.24-.073,1.173,1.173,0,0,0-.4.088l-.082-.211,1.617-.656Zm-.486-2.807a.59.59,0,0,1,.592.592.58.58,0,0,1-.173.422.566.566,0,0,1-.419.176.595.595,0,1,1,0-1.189Z" transform="translate(-321 -244)"/>
    <path class="cls-3" d="M481.745,274.566a8.846,8.846,0,0,1-1.037.738,1.585,1.585,0,0,1-.674.146,1.207,1.207,0,0,1-.917-.381,1.4,1.4,0,0,1-.36-1,1.276,1.276,0,0,1,.176-.68,2.327,2.327,0,0,1,.835-.75,12.991,12.991,0,0,1,1.978-.855v-.211a1.75,1.75,0,0,0-.255-1.1.92.92,0,0,0-.741-.3.832.832,0,0,0-.586.2.6.6,0,0,0-.223.457l.012.34a.584.584,0,0,1-.138.416.472.472,0,0,1-.36.146.456.456,0,0,1-.354-.152.6.6,0,0,1-.138-.416,1.2,1.2,0,0,1,.516-.926,2.226,2.226,0,0,1,1.447-.422,2.51,2.51,0,0,1,1.172.24,1.1,1.1,0,0,1,.51.568,3.2,3.2,0,0,1,.105,1.031v1.822a8.346,8.346,0,0,0,.029.94.4.4,0,0,0,.1.231.23.23,0,0,0,.155.059.32.32,0,0,0,.164-.041,3.66,3.66,0,0,0,.475-.428v.328q-.656.879-1.254.879a.57.57,0,0,1-.457-.2A1.076,1.076,0,0,1,481.745,274.566Zm0-.381v-2.045a11.57,11.57,0,0,0-1.143.5,1.973,1.973,0,0,0-.662.539,1.042,1.042,0,0,0-.2.615,1,1,0,0,0,.252.7.764.764,0,0,0,.58.278A2.126,2.126,0,0,0,481.745,274.186Z" transform="translate(-321 -244)"/>
    <path class="cls-3" d="M485.6,269.814v1.207q.674-1.207,1.383-1.207a.752.752,0,0,1,.533.2.6.6,0,0,1,.211.454.537.537,0,0,1-.152.387.487.487,0,0,1-.363.158.774.774,0,0,1-.46-.2.759.759,0,0,0-.378-.2.349.349,0,0,0-.229.117,2.819,2.819,0,0,0-.545.791v2.572a1.592,1.592,0,0,0,.111.674.607.607,0,0,0,.27.264,1.184,1.184,0,0,0,.557.105v.211H483.79v-.211A1.141,1.141,0,0,0,484.4,275a.5.5,0,0,0,.205-.3,3.014,3.014,0,0,0,.029-.568v-2.08a8.644,8.644,0,0,0-.038-1.116.437.437,0,0,0-.141-.261.4.4,0,0,0-.255-.082,1.159,1.159,0,0,0-.41.088l-.059-.211,1.623-.656Z" transform="translate(-321 -244)"/>
    <path class="cls-3" d="M495,269.814a2.378,2.378,0,0,1,1.957.926,2.843,2.843,0,0,1,.627,1.816,3.42,3.42,0,0,1-.346,1.459,2.455,2.455,0,0,1-2.3,1.488,2.274,2.274,0,0,1-1.928-.967,3,3,0,0,1-.6-1.828,3.244,3.244,0,0,1,.366-1.468,2.5,2.5,0,0,1,.964-1.078A2.473,2.473,0,0,1,495,269.814Zm-.182.381a1.222,1.222,0,0,0-.624.185,1.294,1.294,0,0,0-.507.647,3.116,3.116,0,0,0-.193,1.189,4.144,4.144,0,0,0,.466,2.021,1.387,1.387,0,0,0,1.228.85,1.144,1.144,0,0,0,.938-.469,2.664,2.664,0,0,0,.369-1.611,3.673,3.673,0,0,0-.615-2.25A1.268,1.268,0,0,0,494.814,270.2Z" transform="translate(-321 -244)"/>
    <path class="cls-3" d="M507.273,273.3a2.907,2.907,0,0,1-.85,1.632,2.043,2.043,0,0,1-1.4.571,2.069,2.069,0,0,1-1.594-.768,3.016,3.016,0,0,1-.68-2.074,2.86,2.86,0,0,1,.753-2.057,2.407,2.407,0,0,1,1.808-.791,1.981,1.981,0,0,1,1.3.419,1.159,1.159,0,0,1,.51.87.477.477,0,0,1-.144.36.556.556,0,0,1-.4.138.624.624,0,0,1-.521-.223.926.926,0,0,1-.132-.469.768.768,0,0,0-.237-.527.846.846,0,0,0-.568-.176,1.162,1.162,0,0,0-.943.434,2.306,2.306,0,0,0-.475,1.518,3.073,3.073,0,0,0,.472,1.7,1.448,1.448,0,0,0,1.274.735,1.541,1.541,0,0,0,1.031-.393,2.649,2.649,0,0,0,.627-.979Z" transform="translate(-321 -244)"/>
    <path class="cls-3" d="M510.666,269.814a2.378,2.378,0,0,1,1.957.926,2.843,2.843,0,0,1,.627,1.816,3.42,3.42,0,0,1-.346,1.459,2.455,2.455,0,0,1-2.3,1.488,2.274,2.274,0,0,1-1.928-.967,3,3,0,0,1-.6-1.828,3.244,3.244,0,0,1,.366-1.468,2.5,2.5,0,0,1,.964-1.078A2.473,2.473,0,0,1,510.666,269.814Zm-.182.381a1.222,1.222,0,0,0-.624.185,1.294,1.294,0,0,0-.507.647,3.116,3.116,0,0,0-.193,1.189,4.144,4.144,0,0,0,.466,2.021,1.387,1.387,0,0,0,1.228.85,1.144,1.144,0,0,0,.938-.469,2.664,2.664,0,0,0,.369-1.611,3.673,3.673,0,0,0-.615-2.25A1.268,1.268,0,0,0,510.484,270.2Zm1.418-3-1.729,2.021h-.2l.615-2.021Z" transform="translate(-321 -244)"/>
    <path class="cls-3" d="M517.832,274.736a2.711,2.711,0,0,1-.768.589,1.855,1.855,0,0,1-.809.179,2,2,0,0,1-1.535-.735,2.731,2.731,0,0,1-.656-1.89,3.416,3.416,0,0,1,.727-2.112,2.246,2.246,0,0,1,1.869-.958,1.61,1.61,0,0,1,1.172.451v-.99a8.1,8.1,0,0,0-.044-1.131.493.493,0,0,0-.138-.287.36.36,0,0,0-.234-.076,1.235,1.235,0,0,0-.4.094l-.076-.205,1.6-.656h.264v6.205a8.3,8.3,0,0,0,.044,1.151.511.511,0,0,0,.141.29.338.338,0,0,0,.226.082,1.275,1.275,0,0,0,.422-.1l.064.205-1.594.662h-.27Zm0-.41v-2.766a1.869,1.869,0,0,0-.211-.727,1.217,1.217,0,0,0-.466-.5,1.131,1.131,0,0,0-.565-.167,1.2,1.2,0,0,0-.92.463,2.63,2.63,0,0,0-.533,1.781,2.8,2.8,0,0,0,.516,1.813,1.478,1.478,0,0,0,1.148.63A1.426,1.426,0,0,0,517.832,274.326Z" transform="translate(-321 -244)"/>
    <path class="cls-3" d="M521.893,269.814v4.313a1.975,1.975,0,0,0,.073.671.514.514,0,0,0,.217.249,1.16,1.16,0,0,0,.524.082v.211H520.1v-.211a1.214,1.214,0,0,0,.527-.076.522.522,0,0,0,.214-.252,1.894,1.894,0,0,0,.079-.674v-2.068a7.315,7.315,0,0,0-.053-1.131.46.46,0,0,0-.129-.261.364.364,0,0,0-.24-.073,1.173,1.173,0,0,0-.4.088l-.082-.211,1.617-.656Zm-.486-2.807a.59.59,0,0,1,.592.592.58.58,0,0,1-.173.422.566.566,0,0,1-.419.176.595.595,0,1,1,0-1.189Z" transform="translate(-321 -244)"/>
    <path class="cls-3" d="M524.811,273.383a1.763,1.763,0,0,1-1.02-1.623,1.832,1.832,0,0,1,.6-1.371,2.135,2.135,0,0,1,1.538-.574,2.342,2.342,0,0,1,1.33.375H528.4a1.5,1.5,0,0,1,.293.015.1.1,0,0,1,.059.05.359.359,0,0,1,.035.188.523.523,0,0,1-.029.211.12.12,0,0,1-.062.047,1.3,1.3,0,0,1-.3.018h-.7a1.808,1.808,0,0,1-.246,2.361,2.175,2.175,0,0,1-1.541.533,3,3,0,0,1-.814-.117,1.543,1.543,0,0,0-.349.39.623.623,0,0,0-.091.284.272.272,0,0,0,.1.193.709.709,0,0,0,.378.135q.164.023.82.041,1.207.029,1.564.082a1.47,1.47,0,0,1,.87.4,1.1,1.1,0,0,1,.325.809,1.694,1.694,0,0,1-.621,1.242,3.349,3.349,0,0,1-2.385.855,3.415,3.415,0,0,1-1.91-.51q-.439-.293-.439-.609a.67.67,0,0,1,.064-.281,3.276,3.276,0,0,1,.41-.6q.041-.053.6-.633a1.85,1.85,0,0,1-.431-.325.48.48,0,0,1-.126-.325.964.964,0,0,1,.167-.48A3.847,3.847,0,0,1,524.811,273.383Zm-.059,1.957a2.887,2.887,0,0,0-.416.557,1,1,0,0,0-.141.475.593.593,0,0,0,.34.492,3.237,3.237,0,0,0,1.693.363,2.619,2.619,0,0,0,1.556-.372,1.022,1.022,0,0,0,.5-.794.444.444,0,0,0-.3-.434,3.914,3.914,0,0,0-1.207-.152A19.288,19.288,0,0,1,524.752,275.34Zm1.078-5.244a.915.915,0,0,0-.727.346,1.614,1.614,0,0,0-.293,1.061,2.282,2.282,0,0,0,.4,1.436.944.944,0,0,0,.773.387.923.923,0,0,0,.732-.334,1.587,1.587,0,0,0,.287-1.049,2.347,2.347,0,0,0-.4-1.459A.928.928,0,0,0,525.83,270.1Z" transform="translate(-321 -244)"/>
    <path class="cls-3" d="M532,269.814a2.378,2.378,0,0,1,1.957.926,2.843,2.843,0,0,1,.627,1.816,3.42,3.42,0,0,1-.346,1.459,2.455,2.455,0,0,1-2.3,1.488,2.274,2.274,0,0,1-1.928-.967,3,3,0,0,1-.6-1.828,3.244,3.244,0,0,1,.366-1.468,2.5,2.5,0,0,1,.964-1.078A2.473,2.473,0,0,1,532,269.814Zm-.182.381a1.222,1.222,0,0,0-.624.185,1.294,1.294,0,0,0-.507.647,3.116,3.116,0,0,0-.193,1.189,4.144,4.144,0,0,0,.466,2.021,1.387,1.387,0,0,0,1.228.85,1.144,1.144,0,0,0,.938-.469,2.664,2.664,0,0,0,.369-1.611,3.673,3.673,0,0,0-.615-2.25A1.268,1.268,0,0,0,531.818,270.2Z" transform="translate(-321 -244)"/>
    <path class="cls-3" d="M437.3,281.408v3.926a4.514,4.514,0,0,1,1.031-.917,1.612,1.612,0,0,1,.762-.2,1.251,1.251,0,0,1,.785.252,1.488,1.488,0,0,1,.486.791,5.6,5.6,0,0,1,.111,1.371v1.9a1.984,1.984,0,0,0,.082.7.458.458,0,0,0,.2.223,1.122,1.122,0,0,0,.516.082v.211h-2.637v-.211h.123a.878.878,0,0,0,.521-.114.606.606,0,0,0,.205-.337,4.648,4.648,0,0,0,.018-.551v-1.9a4.561,4.561,0,0,0-.091-1.154.778.778,0,0,0-.29-.413.824.824,0,0,0-.48-.138,1.356,1.356,0,0,0-.6.152,2.851,2.851,0,0,0-.744.615v2.836a2.208,2.208,0,0,0,.062.686.5.5,0,0,0,.229.226,1.306,1.306,0,0,0,.577.091v.211h-2.66v-.211a1.188,1.188,0,0,0,.563-.111.418.418,0,0,0,.188-.223,2.023,2.023,0,0,0,.07-.668v-4.857a8.1,8.1,0,0,0-.044-1.131.5.5,0,0,0-.135-.287.366.366,0,0,0-.243-.076,1.43,1.43,0,0,0-.4.094l-.082-.205,1.605-.656Z" transform="translate(-321 -244)"/>
    <path class="cls-3" d="M442.628,286.394a2.757,2.757,0,0,0,.58,1.875,1.769,1.769,0,0,0,1.377.68,1.493,1.493,0,0,0,.917-.29,2.141,2.141,0,0,0,.653-.993l.182.117a2.794,2.794,0,0,1-.715,1.462,1.909,1.909,0,0,1-1.482.659,2.165,2.165,0,0,1-1.655-.753,2.884,2.884,0,0,1-.688-2.024,3.061,3.061,0,0,1,.706-2.147,2.3,2.3,0,0,1,1.772-.771,1.981,1.981,0,0,1,1.482.595,2.181,2.181,0,0,1,.58,1.591Zm0-.34h2.484a2.3,2.3,0,0,0-.123-.727,1.164,1.164,0,0,0-.437-.516,1.1,1.1,0,0,0-.606-.187,1.209,1.209,0,0,0-.87.378A1.64,1.64,0,0,0,442.628,286.054Z" transform="translate(-321 -244)"/>
    <path class="cls-3" d="M446.835,284.373h2.525v.217a.528.528,0,0,0-.337.082.27.27,0,0,0-.1.217.921.921,0,0,0,.205.434q.064.094.193.293l.381.609.439-.609a2.1,2.1,0,0,0,.422-.732.263.263,0,0,0-.1-.208.494.494,0,0,0-.322-.085v-.217h1.816v.217a.989.989,0,0,0-.5.158,4.157,4.157,0,0,0-.785.867l-.732.979,1.336,1.922a3.966,3.966,0,0,0,.7.853,1.051,1.051,0,0,0,.545.161v.211H450v-.211a.641.641,0,0,0,.41-.117.257.257,0,0,0,.111-.217,2.055,2.055,0,0,0-.375-.68l-.785-1.148-.861,1.148a2.257,2.257,0,0,0-.4.633.334.334,0,0,0,.132.255.635.635,0,0,0,.4.126v.211h-1.752v-.211a.792.792,0,0,0,.369-.146,5.366,5.366,0,0,0,.75-.867l1.125-1.494-1.02-1.477a3.326,3.326,0,0,0-.671-.794,1.035,1.035,0,0,0-.595-.161Z" transform="translate(-321 -244)"/>
    <path class="cls-3" d="M456.093,288.966a8.846,8.846,0,0,1-1.037.738,1.585,1.585,0,0,1-.674.146,1.207,1.207,0,0,1-.917-.381,1.4,1.4,0,0,1-.36-1,1.276,1.276,0,0,1,.176-.68,2.327,2.327,0,0,1,.835-.75,12.991,12.991,0,0,1,1.978-.855v-.211a1.75,1.75,0,0,0-.255-1.1.92.92,0,0,0-.741-.3.832.832,0,0,0-.586.2.6.6,0,0,0-.223.457l.012.34a.584.584,0,0,1-.138.416.472.472,0,0,1-.36.146.456.456,0,0,1-.354-.152.6.6,0,0,1-.138-.416,1.2,1.2,0,0,1,.516-.926,2.226,2.226,0,0,1,1.447-.422,2.51,2.51,0,0,1,1.172.24,1.1,1.1,0,0,1,.51.568,3.2,3.2,0,0,1,.105,1.031v1.822a8.346,8.346,0,0,0,.029.94.4.4,0,0,0,.1.231.23.23,0,0,0,.155.059.32.32,0,0,0,.164-.041,3.66,3.66,0,0,0,.475-.428v.328q-.656.879-1.254.879a.57.57,0,0,1-.457-.2A1.076,1.076,0,0,1,456.093,288.966Zm0-.381v-2.045a11.57,11.57,0,0,0-1.143.5,1.973,1.973,0,0,0-.662.539,1.042,1.042,0,0,0-.2.615,1,1,0,0,0,.252.7.764.764,0,0,0,.58.278A2.126,2.126,0,0,0,456.093,288.585Z" transform="translate(-321 -244)"/>
    <path class="cls-3" d="M462.169,289.136a2.711,2.711,0,0,1-.768.589,1.855,1.855,0,0,1-.809.179,2,2,0,0,1-1.535-.735,2.731,2.731,0,0,1-.656-1.89,3.416,3.416,0,0,1,.727-2.112,2.246,2.246,0,0,1,1.869-.958,1.61,1.61,0,0,1,1.172.451v-.99a8.1,8.1,0,0,0-.044-1.131.493.493,0,0,0-.138-.287.36.36,0,0,0-.234-.076,1.235,1.235,0,0,0-.4.094l-.076-.205,1.6-.656h.264v6.205a8.3,8.3,0,0,0,.044,1.151.511.511,0,0,0,.141.29.338.338,0,0,0,.226.082,1.275,1.275,0,0,0,.422-.1l.064.205-1.594.662h-.27Zm0-.41V285.96a1.869,1.869,0,0,0-.211-.727,1.217,1.217,0,0,0-.466-.5,1.131,1.131,0,0,0-.565-.167,1.2,1.2,0,0,0-.92.463,2.63,2.63,0,0,0-.533,1.781,2.8,2.8,0,0,0,.516,1.813,1.478,1.478,0,0,0,1.148.63A1.426,1.426,0,0,0,462.169,288.726Z" transform="translate(-321 -244)"/>
    <path class="cls-3" d="M465.28,286.394a2.757,2.757,0,0,0,.58,1.875,1.769,1.769,0,0,0,1.377.68,1.493,1.493,0,0,0,.917-.29,2.141,2.141,0,0,0,.653-.993l.182.117a2.794,2.794,0,0,1-.715,1.462,1.909,1.909,0,0,1-1.482.659,2.165,2.165,0,0,1-1.655-.753,2.884,2.884,0,0,1-.688-2.024,3.061,3.061,0,0,1,.706-2.147,2.3,2.3,0,0,1,1.772-.771,1.981,1.981,0,0,1,1.482.595,2.181,2.181,0,0,1,.58,1.591Zm0-.34h2.484a2.3,2.3,0,0,0-.123-.727,1.164,1.164,0,0,0-.437-.516,1.1,1.1,0,0,0-.606-.187,1.209,1.209,0,0,0-.87.378A1.64,1.64,0,0,0,465.28,286.054Z" transform="translate(-321 -244)"/>
    <path class="cls-3" d="M474.263,287.7a2.907,2.907,0,0,1-.85,1.632,2.043,2.043,0,0,1-1.4.571,2.069,2.069,0,0,1-1.594-.768,3.016,3.016,0,0,1-.68-2.074,2.86,2.86,0,0,1,.753-2.057,2.407,2.407,0,0,1,1.808-.791,1.981,1.981,0,0,1,1.3.419,1.159,1.159,0,0,1,.51.87.477.477,0,0,1-.144.36.556.556,0,0,1-.4.138.624.624,0,0,1-.521-.223.926.926,0,0,1-.132-.469.768.768,0,0,0-.237-.527.846.846,0,0,0-.568-.176,1.162,1.162,0,0,0-.943.434,2.306,2.306,0,0,0-.475,1.518,3.073,3.073,0,0,0,.472,1.7,1.448,1.448,0,0,0,1.274.735,1.541,1.541,0,0,0,1.031-.393,2.649,2.649,0,0,0,.627-.979Z" transform="translate(-321 -244)"/>
    <path class="cls-3" d="M476.882,284.214v4.313a1.975,1.975,0,0,0,.073.671.514.514,0,0,0,.217.249,1.16,1.16,0,0,0,.524.082v.211h-2.607v-.211a1.214,1.214,0,0,0,.527-.076.522.522,0,0,0,.214-.252,1.894,1.894,0,0,0,.079-.674v-2.068a7.315,7.315,0,0,0-.053-1.131.46.46,0,0,0-.129-.261.364.364,0,0,0-.24-.073,1.173,1.173,0,0,0-.4.088l-.082-.211,1.617-.656Zm-.486-2.807a.59.59,0,0,1,.592.592.58.58,0,0,1-.173.422.566.566,0,0,1-.419.176.595.595,0,1,1,0-1.189Z" transform="translate(-321 -244)"/>
    <path class="cls-3" d="M479.958,285.357q.586-.586.691-.674a2.092,2.092,0,0,1,.568-.346,1.6,1.6,0,0,1,.6-.123,1.338,1.338,0,0,1,.867.293,1.45,1.45,0,0,1,.486.85,3.981,3.981,0,0,1,1.02-.923,1.811,1.811,0,0,1,.855-.22,1.341,1.341,0,0,1,.759.22,1.46,1.46,0,0,1,.524.718,3.234,3.234,0,0,1,.129,1.066v2.309a2.1,2.1,0,0,0,.076.691.5.5,0,0,0,.217.22,1.089,1.089,0,0,0,.516.091v.211h-2.648v-.211h.111a.932.932,0,0,0,.539-.135.522.522,0,0,0,.193-.3,3.757,3.757,0,0,0,.023-.568v-2.309a1.954,1.954,0,0,0-.158-.926.793.793,0,0,0-.732-.375,1.4,1.4,0,0,0-.624.155,3.383,3.383,0,0,0-.759.577l-.012.064.012.252v2.561a2.208,2.208,0,0,0,.062.686.5.5,0,0,0,.231.226,1.326,1.326,0,0,0,.58.091v.211h-2.713v-.211a1.243,1.243,0,0,0,.612-.105.547.547,0,0,0,.231-.316,3.117,3.117,0,0,0,.029-.58v-2.309a1.745,1.745,0,0,0-.193-.943.826.826,0,0,0-.721-.375,1.294,1.294,0,0,0-.627.17,2.412,2.412,0,0,0-.75.58v2.877a1.993,1.993,0,0,0,.073.686.5.5,0,0,0,.217.237,1.4,1.4,0,0,0,.583.079v.211h-2.654v-.211a1.182,1.182,0,0,0,.516-.079.506.506,0,0,0,.223-.252,1.934,1.934,0,0,0,.076-.671v-2.051a7.433,7.433,0,0,0-.053-1.143.466.466,0,0,0-.129-.267.364.364,0,0,0-.24-.073,1.126,1.126,0,0,0-.393.088l-.088-.211,1.617-.656h.252Z" transform="translate(-321 -244)"/>
    <path class="cls-3" d="M490.739,288.966a8.846,8.846,0,0,1-1.037.738,1.585,1.585,0,0,1-.674.146,1.207,1.207,0,0,1-.917-.381,1.4,1.4,0,0,1-.36-1,1.276,1.276,0,0,1,.176-.68,2.327,2.327,0,0,1,.835-.75,12.991,12.991,0,0,1,1.978-.855v-.211a1.75,1.75,0,0,0-.255-1.1.92.92,0,0,0-.741-.3.832.832,0,0,0-.586.2.6.6,0,0,0-.223.457l.012.34a.584.584,0,0,1-.138.416.472.472,0,0,1-.36.146.456.456,0,0,1-.354-.152.6.6,0,0,1-.138-.416,1.2,1.2,0,0,1,.516-.926,2.226,2.226,0,0,1,1.447-.422,2.51,2.51,0,0,1,1.172.24,1.1,1.1,0,0,1,.51.568,3.2,3.2,0,0,1,.105,1.031v1.822a8.346,8.346,0,0,0,.029.94.4.4,0,0,0,.1.231.23.23,0,0,0,.155.059.32.32,0,0,0,.164-.041,3.66,3.66,0,0,0,.475-.428v.328q-.656.879-1.254.879a.57.57,0,0,1-.457-.2A1.076,1.076,0,0,1,490.739,288.966Zm0-.381v-2.045a11.57,11.57,0,0,0-1.143.5,1.973,1.973,0,0,0-.662.539,1.042,1.042,0,0,0-.2.615,1,1,0,0,0,.252.7.764.764,0,0,0,.58.278A2.126,2.126,0,0,0,490.739,288.585Z" transform="translate(-321 -244)"/>
    <path class="cls-3" d="M494.87,281.408v7.119a1.947,1.947,0,0,0,.073.668.519.519,0,0,0,.226.249,1.3,1.3,0,0,0,.568.085v.211h-2.631v-.211a1.137,1.137,0,0,0,.5-.076.508.508,0,0,0,.211-.252,1.962,1.962,0,0,0,.076-.674v-4.875a8.449,8.449,0,0,0-.041-1.116.489.489,0,0,0-.132-.284.348.348,0,0,0-.231-.076,1.094,1.094,0,0,0-.387.094l-.1-.205,1.6-.656Z" transform="translate(-321 -244)"/>
  </g>
</svg>
