<svg id="Camada_1" data-name="Camada 1" xmlns="http://www.w3.org/2000/svg" viewBox="0 0 219 71">
  <defs>
    <style>
      .cls-1 {
        fill: #fff;
      }

      .cls-1, .cls-2 {
        stroke: #262626;
        stroke-width: 2px;
      }

      .cls-2, .cls-3 {
        fill: #262626;
      }
    </style>
  </defs>
  <title>codigo preto CLICADO</title>
  <rect class="cls-1" x="1" y="1" width="217" height="69"/>
  <rect class="cls-2" x="1" y="1" width="69" height="69"/>
  <g>
    <path class="cls-3" d="M441.058,276.213l.182,2.7h-.182a3.4,3.4,0,0,0-1.037-1.746,2.526,2.526,0,0,0-1.617-.533,2.506,2.506,0,0,0-2.435,1.682,5.7,5.7,0,0,0-.366,2.186,4.641,4.641,0,0,0,.346,1.869,2.59,2.59,0,0,0,1.04,1.213,2.991,2.991,0,0,0,1.585.422,2.749,2.749,0,0,0,1.365-.331,4.5,4.5,0,0,0,1.3-1.315l.182.117a4.172,4.172,0,0,1-1.395,1.553,3.53,3.53,0,0,1-1.893.492,3.582,3.582,0,0,1-3.059-1.465,4.188,4.188,0,0,1-.809-2.566,4.558,4.558,0,0,1,.533-2.186,3.858,3.858,0,0,1,1.468-1.544,3.966,3.966,0,0,1,2.042-.548,3.742,3.742,0,0,1,1.7.422.922.922,0,0,0,.352.129.387.387,0,0,0,.275-.111.913.913,0,0,0,.217-.439Z" transform="translate(-321 -244)"/>
    <path class="cls-3" d="M446.226,276.213a3.6,3.6,0,0,1,2.681,1.175,4.056,4.056,0,0,1,1.134,2.933,4.177,4.177,0,0,1-1.143,3.006,3.819,3.819,0,0,1-5.522.029,4.183,4.183,0,0,1-1.116-3.018,4.02,4.02,0,0,1,1.289-3.088A3.8,3.8,0,0,1,446.226,276.213Zm-.111.428a2.1,2.1,0,0,0-1.711.791,4.472,4.472,0,0,0-.8,2.883,4.719,4.719,0,0,0,.832,2.994,2.056,2.056,0,0,0,1.688.8,2.306,2.306,0,0,0,1.849-.873,4.257,4.257,0,0,0,.729-2.754,4.81,4.81,0,0,0-.8-3.041A2.165,2.165,0,0,0,446.114,276.641Z" transform="translate(-321 -244)"/>
    <path class="cls-3" d="M452.964,280.619v2.314a1.622,1.622,0,0,0,.164.932.842.842,0,0,0,.674.258h.3v.217h-3.4v-.217h.3a.8.8,0,0,0,.721-.328,1.933,1.933,0,0,0,.117-.861V277.8a1.673,1.673,0,0,0-.158-.932.861.861,0,0,0-.68-.258h-.3v-.217h2.912a5.161,5.161,0,0,1,1.682.22,2.315,2.315,0,0,1,1.037.741,1.905,1.905,0,0,1,.422,1.236,2.083,2.083,0,0,1-.642,1.582,2.53,2.53,0,0,1-1.813.609,5.116,5.116,0,0,1-.621-.041Q453.345,280.7,452.964,280.619Zm0-.334q.311.059.551.088a3.468,3.468,0,0,0,.41.029,1.394,1.394,0,0,0,1.052-.472,1.714,1.714,0,0,0,.442-1.222,2.2,2.2,0,0,0-.211-.958,1.456,1.456,0,0,0-.6-.662,1.748,1.748,0,0,0-.879-.22,3.468,3.468,0,0,0-.768.111Z" transform="translate(-321 -244)"/>
    <path class="cls-3" d="M460.88,284.123v.217h-3.4v-.217h.281a.848.848,0,0,0,.715-.287,1.784,1.784,0,0,0,.141-.9V277.8a2.631,2.631,0,0,0-.076-.8.528.528,0,0,0-.24-.252,1.111,1.111,0,0,0-.539-.141h-.281v-.217h3.4v.217h-.287a.841.841,0,0,0-.709.287,1.722,1.722,0,0,0-.146.9v5.133a2.631,2.631,0,0,0,.076.8.525.525,0,0,0,.246.252,1.078,1.078,0,0,0,.533.141Z" transform="translate(-321 -244)"/>
    <path class="cls-3" d="M466.663,281.68h-3.076l-.539,1.254a1.985,1.985,0,0,0-.2.691.4.4,0,0,0,.173.319,1.51,1.51,0,0,0,.747.179v.217h-2.5v-.217a1.348,1.348,0,0,0,.645-.229,3.589,3.589,0,0,0,.662-1.143l2.795-6.539h.205l2.766,6.609a3.013,3.013,0,0,0,.606,1.034,1.236,1.236,0,0,0,.759.267v.217h-3.135v-.217a1.175,1.175,0,0,0,.642-.158.408.408,0,0,0,.167-.328,2.429,2.429,0,0,0-.234-.814Zm-.164-.434-1.348-3.211-1.383,3.211Z" transform="translate(-321 -244)"/>
    <path class="cls-3" d="M470.044,284.34v-.217h.3a.789.789,0,0,0,.715-.322,1.836,1.836,0,0,0,.129-.867V277.8a1.64,1.64,0,0,0-.164-.932.861.861,0,0,0-.68-.258h-.3v-.217h3.234a7.063,7.063,0,0,1,2.71.4,3.224,3.224,0,0,1,1.494,1.348,4.157,4.157,0,0,1,.565,2.18,3.976,3.976,0,0,1-1.008,2.771,4.433,4.433,0,0,1-3.445,1.242Zm2.268-.574a5.984,5.984,0,0,0,1.248.164,2.963,2.963,0,0,0,2.256-.955,4.2,4.2,0,0,0,0-5.186,3.027,3.027,0,0,0-2.3-.949,4.976,4.976,0,0,0-1.2.17Z" transform="translate(-321 -244)"/>
    <path class="cls-3" d="M482.894,276.213a3.6,3.6,0,0,1,2.681,1.175,4.056,4.056,0,0,1,1.134,2.933,4.177,4.177,0,0,1-1.143,3.006,3.819,3.819,0,0,1-5.522.029,4.183,4.183,0,0,1-1.116-3.018,4.02,4.02,0,0,1,1.289-3.088A3.8,3.8,0,0,1,482.894,276.213Zm-.111.428a2.1,2.1,0,0,0-1.711.791,4.472,4.472,0,0,0-.8,2.883,4.719,4.719,0,0,0,.832,2.994,2.056,2.056,0,0,0,1.688.8,2.306,2.306,0,0,0,1.849-.873,4.257,4.257,0,0,0,.729-2.754,4.81,4.81,0,0,0-.8-3.041A2.165,2.165,0,0,0,482.782,276.641Z" transform="translate(-321 -244)"/>
    <path class="cls-3" d="M491.853,283.2a.629.629,0,0,1,.466.193.636.636,0,0,1,.19.463.622.622,0,0,1-.193.46.636.636,0,0,1-.463.19.65.65,0,0,1-.65-.65.636.636,0,0,1,.19-.463A.622.622,0,0,1,491.853,283.2Zm.012-4.389a.65.65,0,1,1-.46.19A.627.627,0,0,1,491.864,278.809Z" transform="translate(-321 -244)"/>
    <path class="cls-3" d="M493.774,276.254v-.246a5.466,5.466,0,0,1,1.482,1.037,6,6,0,0,1,1.295,2.007,6.445,6.445,0,0,1,.457,2.4,6.343,6.343,0,0,1-.894,3.313,5.141,5.141,0,0,1-2.341,2.142v-.217a3.456,3.456,0,0,0,1.187-1.093,4.934,4.934,0,0,0,.691-1.752,10.663,10.663,0,0,0,.226-2.218,12.4,12.4,0,0,0-.193-2.279,5.678,5.678,0,0,0-.366-1.295,4.354,4.354,0,0,0-.583-.937A4.462,4.462,0,0,0,493.774,276.254Z" transform="translate(-321 -244)"/>
  </g>
</svg>
