<svg id="Camada_1" data-name="Camada 1" xmlns="http://www.w3.org/2000/svg" viewBox="0 0 44.199 294.116">
  <defs>
    <style>
      .cls-1 {
        fill: #bfbfbf;
      }

      .cls-2 {
        fill: #262626;
      }

      .cls-3, .cls-4 {
        fill: none;
        stroke-miterlimit: 10;
        stroke-width: 2px;
      }

      .cls-3 {
        stroke: #000;
      }

      .cls-4 {
        stroke: #262626;
      }
    </style>
  </defs>
  <title>pag1</title>
  <g>
    <g>
      <polygon class="cls-1" points="11.377 100.177 1.155 82.471 11.377 64.765 31.822 64.765 42.045 82.471 31.822 100.177 11.377 100.177"/>
      <path class="cls-2" d="M692.045,302.941l9.645,16.706-9.645,16.706h-19.29l-9.645-16.706,9.645-16.706h19.29m1.155-2H671.6l-10.8,18.706,10.8,18.706h21.6L704,319.647l-10.8-18.706Z" transform="translate(-660.801 -237.176)"/>
    </g>
    <g>
      <polygon class="cls-2" points="12.377 36.412 2.155 18.706 12.377 1 32.822 1 43.045 18.706 32.822 36.412 12.377 36.412"/>
      <path class="cls-2" d="M693.045,239.176l9.645,16.706-9.645,16.706h-19.29l-9.645-16.706,9.645-16.706h19.29m1.155-2H672.6l-10.8,18.706,10.8,18.706h21.6L705,255.882l-10.8-18.706Z" transform="translate(-660.801 -237.176)"/>
    </g>
    <g>
      <polygon class="cls-1" points="12.377 164.646 2.155 146.941 12.377 129.235 32.822 129.235 43.045 146.941 32.822 164.646 12.377 164.646"/>
      <path class="cls-2" d="M693.045,367.411l9.645,16.706-9.645,16.706h-19.29l-9.645-16.706,9.645-16.706h19.29m1.155-2H672.6l-10.8,18.706,10.8,18.706h21.6L705,384.117l-10.8-18.706Z" transform="translate(-660.801 -237.176)"/>
    </g>
    <g>
      <polygon class="cls-1" points="12.377 228.881 2.155 211.175 12.377 193.47 32.822 193.47 43.045 211.175 32.822 228.881 12.377 228.881"/>
      <path class="cls-2" d="M693.045,431.646l9.645,16.706-9.645,16.706h-19.29l-9.645-16.706,9.645-16.706h19.29m1.155-2H672.6l-10.8,18.706,10.8,18.706h21.6L705,448.352l-10.8-18.706Z" transform="translate(-660.801 -237.176)"/>
    </g>
    <g>
      <polygon class="cls-1" points="12.377 293.116 2.155 275.411 12.377 257.705 32.822 257.705 43.045 275.411 32.822 293.116 12.377 293.116"/>
      <path class="cls-2" d="M693.045,495.881l9.645,16.706-9.645,16.706h-19.29l-9.645-16.706,9.645-16.706h19.29m1.155-2H672.6l-10.8,18.706,10.8,18.706h21.6L705,512.587l-10.8-18.706Z" transform="translate(-660.801 -237.176)"/>
    </g>
    <g>
      <polyline class="cls-3" points="11.183 79.95 11.183 71.749 19.517 71.749"/>
      <polyline class="cls-3" points="23.419 71.749 31.818 71.749 31.818 80.479"/>
      <polyline class="cls-3" points="11.183 84.117 11.183 92.384 19.517 92.384"/>
      <polyline class="cls-3" points="23.419 92.384 31.818 92.384 31.818 83.654"/>
      <line class="cls-3" x1="21.501" y1="69.765" x2="21.501" y2="74.13"/>
      <line class="cls-3" x1="21.501" y1="90.4" x2="21.501" y2="94.765"/>
      <line class="cls-3" x1="13.564" y1="82.067" x2="9.199" y2="82.067"/>
      <line class="cls-3" x1="34.199" y1="82.067" x2="29.834" y2="82.067"/>
    </g>
    <line class="cls-4" x1="22.199" y1="36.765" x2="22.199" y2="64.765"/>
    <line class="cls-4" x1="22.199" y1="100.765" x2="22.199" y2="128.765"/>
    <line class="cls-4" x1="22.199" y1="164.765" x2="22.199" y2="192.765"/>
    <line class="cls-4" x1="22.199" y1="229.765" x2="22.199" y2="257.765"/>
  </g>
</svg>
