<svg id="Camada_1" data-name="Camada 1" xmlns="http://www.w3.org/2000/svg" viewBox="0 0 43.199 294.351">
  <defs>
    <style>
      .cls-1 {
        fill: #262626;
      }

      .cls-2 {
        fill: #bfbfbf;
      }

      .cls-3, .cls-4 {
        fill: none;
        stroke-miterlimit: 10;
        stroke-width: 2px;
      }

      .cls-3 {
        stroke: #262626;
      }

      .cls-4 {
        stroke: #bfbfbf;
      }
    </style>
  </defs>
  <title>pag2</title>
  <g>
    <g>
      <polygon class="cls-1" points="11.377 36.411 1.154 18.706 11.377 1 31.822 1 42.045 18.706 31.822 36.411 11.377 36.411"/>
      <path class="cls-2" d="M800.045,234.059l9.645,16.706-9.645,16.706h-19.29l-9.645-16.706,9.645-16.706h19.29m1.155-2H779.6l-10.8,18.706,10.8,18.706h21.6L812,250.764l-10.8-18.706Z" transform="translate(-768.801 -232.059)"/>
    </g>
    <g>
      <polygon class="cls-2" points="11.377 100.646 1.154 82.941 11.377 65.235 31.822 65.235 42.045 82.941 31.822 100.646 11.377 100.646"/>
      <path class="cls-2" d="M800.045,298.294,809.691,315l-9.645,16.706h-19.29L771.11,315l9.645-16.706h19.29m1.155-2H779.6L768.8,315l10.8,18.706h21.6L812,315l-10.8-18.706Z" transform="translate(-768.801 -232.059)"/>
    </g>
    <g>
      <polygon class="cls-1" points="11.377 164.882 1.154 147.176 11.377 129.47 31.822 129.47 42.045 147.176 31.822 164.882 11.377 164.882"/>
      <path class="cls-2" d="M800.045,362.529l9.645,16.706-9.645,16.706h-19.29l-9.645-16.706,9.645-16.706h19.29m1.155-2H779.6l-10.8,18.706,10.8,18.706h21.6L812,379.234l-10.8-18.706Z" transform="translate(-768.801 -232.059)"/>
    </g>
    <g>
      <polygon class="cls-1" points="11.377 229.116 1.154 211.411 11.377 193.705 31.822 193.705 42.045 211.411 31.822 229.116 11.377 229.116"/>
      <path class="cls-2" d="M800.045,426.763l9.645,16.706-9.645,16.706h-19.29l-9.645-16.706,9.645-16.706h19.29m1.155-2H779.6l-10.8,18.706,10.8,18.706h21.6L812,443.469l-10.8-18.706Z" transform="translate(-768.801 -232.059)"/>
    </g>
    <g>
      <polygon class="cls-1" points="11.377 293.351 1.154 275.645 11.377 257.939 31.822 257.939 42.045 275.645 31.822 293.351 11.377 293.351"/>
      <path class="cls-2" d="M800.045,491l9.645,16.706-9.645,16.706h-19.29L771.11,507.7,780.755,491h19.29m1.155-2H779.6L768.8,507.7l10.8,18.706h21.6L812,507.7,801.2,489Z" transform="translate(-768.801 -232.059)"/>
    </g>
    <g>
      <polyline class="cls-3" points="11.183 81.185 11.183 72.984 19.517 72.984"/>
      <polyline class="cls-3" points="23.419 72.984 31.818 72.984 31.818 81.714"/>
      <polyline class="cls-3" points="11.183 85.352 11.183 93.619 19.517 93.619"/>
      <polyline class="cls-3" points="23.419 93.619 31.818 93.619 31.818 84.889"/>
      <line class="cls-3" x1="21.501" y1="71" x2="21.501" y2="75.365"/>
      <line class="cls-3" x1="21.501" y1="91.635" x2="21.501" y2="96"/>
      <line class="cls-3" x1="13.564" y1="83.302" x2="9.199" y2="83.302"/>
      <line class="cls-3" x1="34.199" y1="83.302" x2="29.834" y2="83.302"/>
    </g>
    <line class="cls-4" x1="21.199" y1="37" x2="21.199" y2="65"/>
    <line class="cls-4" x1="21.199" y1="101" x2="21.199" y2="129"/>
    <line class="cls-4" x1="21.199" y1="165" x2="21.199" y2="193"/>
    <line class="cls-4" x1="21.199" y1="230" x2="21.199" y2="258"/>
  </g>
</svg>
